<svg id="Capa_1" data-name="Capa 1" xmlns="http://www.w3.org/2000/svg" viewBox="0 0 85.54 85.54"><defs><style>.cls-1{fill:#fefefe;}.cls-2{fill:#039fc6;}.cls-3{fill:#04426c;}</style></defs><path class="cls-1" d="M146.29,44.13a1.7,1.7,0,0,0,.19.19c.61.51.77.46,1-.31a4.91,4.91,0,0,0,.1-2c0-.41-.1-.81-.13-1.21s-.08-.63.24-.79.56.09.79.27a4.44,4.44,0,0,1,.82,1A15.45,15.45,0,0,1,151,44.33,4.89,4.89,0,0,0,153.35,47a7.06,7.06,0,0,1,3.05,3,20.23,20.23,0,0,1,2.44,10.24,7.9,7.9,0,0,0,.85,3.77,29,29,0,0,0,4.25,5.89c5.22,5.86,11.18,10.93,17.14,16a.92.92,0,0,0,.65.22H186a3.14,3.14,0,0,0,3.21-3.22q0-11,0-22a3.15,3.15,0,0,0-3.29-3.25H164.25c-.21,0-.43,0-.65,0l-1.46,0a1.4,1.4,0,0,0-.81,0c-.54.06-.66-.13-.66-.66q0-12.24,0-24.47a3.18,3.18,0,0,0-3.37-3.39H135.55a3.17,3.17,0,0,0-3.38,3.38V55.09c0,.17-.07.36.1.56a19.16,19.16,0,0,0,4.09-4A7.82,7.82,0,0,1,140.71,48,1.77,1.77,0,0,0,142,46.4a14.2,14.2,0,0,0-.61-4.89c-.08-.32-.33-.62,0-.92a1,1,0,0,1,1.08-.23,2.6,2.6,0,0,1,1.13.77c.64.71,1.27,1.43,1.9,2.15ZM158,71.65c-.1.19-.17.32-.23.46-1.32,3.14-2.65,6.29-4,9.44a2.4,2.4,0,0,1-1,1.17,16.43,16.43,0,0,0-3.14,2.5c-1,1-1.64,2.13-2.58,3.08-1.75,1.75-3.51,3.5-5.21,5.31-.2.21-.32.26-.51,0a36,36,0,0,1-2.62-3.6,10.19,10.19,0,0,1-1.44-6.39,26.9,26.9,0,0,1,1.33-4.82c.91-2.86,2.13-5.63,2.24-8.71a12.62,12.62,0,0,0-.17-3,2.66,2.66,0,0,0-2-2.18,13.41,13.41,0,0,0-2.33-.42c-2.16-.25-3.94-1-4.59-3.35-.31-1.14-1-2.15-1.14-3.36,0-.17-.1-.22-.3-.22-.69,0-1.39,0-2.08,0H107.1A3.19,3.19,0,0,0,103.66,61q0,7.55,0,15.09c0,2.26,0,4.53,0,6.79a3.16,3.16,0,0,0,3.11,3.21q12.3,0,24.58,0c.81,0,.82,0,.82.78v18.18c0,2.14,0,4.27,0,6.41a3.12,3.12,0,0,0,3.07,3.13c6.92,0,13.84,0,20.77,0,.37,0,.51-.12.58-.48a30.73,30.73,0,0,1,1.36-4.88,5.06,5.06,0,0,1,5.15-3.62c1.24,0,2.47.09,3.7.18a35.31,35.31,0,0,0,5.72.28,7,7,0,0,0,4.71-2.38c1.15-1.27,2.24-2.61,2-4.52a1.23,1.23,0,0,1,0-.33.7.7,0,0,0-.46-.77c-.7-.32-1.38-.69-2.05-1.07-1.88-1.06-3.62-2.31-5.4-3.51a6.51,6.51,0,0,1-2.9-3.86A5.12,5.12,0,0,0,166.65,87a27.26,27.26,0,0,0-2.26-1.75,1.14,1.14,0,0,1-.54-1.31,20,20,0,0,0,.47-6.63,12.3,12.3,0,0,0-1.44-4.83l-2.58,5.88C159.48,76.05,159.14,73.75,158,71.65Zm-29.85,38.06c.26-.13.17-.36.17-.54,0-6.28,0-12.56,0-18.84,0-.49-.13-.61-.61-.61-3.72,0-7.44,0-11.16,0l-.52,0c.26.29.54.21.77.26,2.73.67,5.46,1.33,8.2,2,.48.11.73.29.73.81a9.87,9.87,0,0,0,.16,1.09ZM164.37,40h-.09c0,4.49,0,9,0,13.47,0,.43.2.42.5.42h13l.61,0c-3.82-.94-7.48-1.84-11.14-2.72a.73.73,0,0,1-.65-.66c-.17-1-.39-1.91-.59-2.86Q165.19,43.77,164.37,40Z" transform="translate(-103.65 -29.07)"/><path class="cls-2" d="M158,71.65c1.17,2.1,1.51,4.4,2.33,6.73l2.58-5.88a12.3,12.3,0,0,1,1.44,4.83,20,20,0,0,1-.47,6.63,1.14,1.14,0,0,0,.54,1.31A27.26,27.26,0,0,1,166.65,87a5.12,5.12,0,0,1,1.74,2.63,6.51,6.51,0,0,0,2.9,3.86c1.78,1.2,3.52,2.45,5.4,3.51.67.38,1.35.75,2.05,1.07a.7.7,0,0,1,.46.77,1.23,1.23,0,0,0,0,.33c.28,1.91-.81,3.25-2,4.52a7,7,0,0,1-4.71,2.38,35.31,35.31,0,0,1-5.72-.28c-1.23-.09-2.46-.2-3.7-.18a5.06,5.06,0,0,0-5.15,3.62,30.73,30.73,0,0,0-1.36,4.88c-.07.36-.21.48-.58.48-6.93,0-13.85,0-20.77,0a3.12,3.12,0,0,1-3.07-3.13c0-2.14,0-4.27,0-6.41V86.88c0-.8,0-.78-.82-.78q-12.28,0-24.58,0a3.16,3.16,0,0,1-3.11-3.21c0-2.26,0-4.53,0-6.79q0-7.55,0-15.09a3.19,3.19,0,0,1,3.44-3.44h21.16c.69,0,1.39,0,2.08,0,.2,0,.28,0,.3.22.11,1.21.83,2.22,1.14,3.36.65,2.38,2.43,3.1,4.59,3.35a13.41,13.41,0,0,1,2.33.42,2.66,2.66,0,0,1,2,2.18,12.62,12.62,0,0,1,.17,3c-.11,3.08-1.33,5.85-2.24,8.71a26.9,26.9,0,0,0-1.33,4.82A10.19,10.19,0,0,0,138.69,90a36,36,0,0,0,2.62,3.6c.19.26.31.21.51,0,1.7-1.81,3.46-3.56,5.21-5.31.94-1,1.62-2.13,2.58-3.08a16.43,16.43,0,0,1,3.14-2.5,2.4,2.4,0,0,0,1-1.17c1.31-3.15,2.64-6.3,4-9.44C157.8,72,157.87,71.84,158,71.65Z" transform="translate(-103.65 -29.07)"/><path class="cls-3" d="M145.46,43.28c-.63-.72-1.26-1.44-1.9-2.15a2.6,2.6,0,0,0-1.13-.77,1,1,0,0,0-1.08.23c-.29.3,0,.6,0,.92A14.2,14.2,0,0,1,142,46.4,1.77,1.77,0,0,1,140.71,48a7.82,7.82,0,0,0-4.35,3.62,19.16,19.16,0,0,1-4.09,4c-.17-.2-.1-.39-.1-.56V32.45a3.17,3.17,0,0,1,3.38-3.38h21.76a3.18,3.18,0,0,1,3.37,3.39q0,12.24,0,24.47c0,.53,0,.72.67.73.26,0,.54,0,.8,0a.51.51,0,0,0,.22.77,2.08,2.08,0,0,0,1.21,0s.07-.16.06-.24,0-.36,0-.54c.22,0,.44,0,.65,0H185.9a3.15,3.15,0,0,1,3.29,3.25q0,11,0,22A3.14,3.14,0,0,1,186,86.09h-4.25a.92.92,0,0,1-.65-.22c-6-5.06-11.92-10.13-17.14-16A29,29,0,0,1,159.69,64a7.9,7.9,0,0,1-.85-3.77A20.23,20.23,0,0,0,156.4,50a7.06,7.06,0,0,0-3.05-3A4.89,4.89,0,0,1,151,44.33a15.45,15.45,0,0,0-1.65-3.11,4.44,4.44,0,0,0-.82-1c-.23-.18-.48-.42-.79-.27s-.26.5-.24.79.09.8.13,1.21a4.91,4.91,0,0,1-.1,2c-.25.77-.41.82-1,.31a1.7,1.7,0,0,1-.19-.19c.12-.25.28,0,.43,0s.35,0,.34-.24a11.22,11.22,0,0,0-.08-1.92c-.07-.37-.32-.46-.63-.49a.68.68,0,0,0-.77.4c-.07.15-.12.36,0,.45a.33.33,0,0,0,.45-.08c.08-.12.16-.31.31-.13s0,.28-.16.36A1.56,1.56,0,0,0,145.46,43.28ZM180.21,71.7a3.84,3.84,0,0,0-.08-1.1.65.65,0,0,0-.7-.42.64.64,0,0,0-.71.4c-.05.14-.19.34,0,.45a.41.41,0,0,0,.51-.06c.09-.1.15-.33.31-.15s0,.32-.18.4a1.21,1.21,0,0,0-.71.86c-.07.43.12.73.5.75,1.07.06,1.07.06,1.07-1Z" transform="translate(-103.65 -29.07)"/><path class="cls-2" d="M128.12,109.71l-2.25-15.84a9.87,9.87,0,0,1-.16-1.09c0-.52-.25-.7-.73-.81-2.74-.62-5.47-1.28-8.2-2-.23,0-.51,0-.77-.26l.52,0c3.72,0,7.44,0,11.16,0,.48,0,.61.12.61.61,0,6.28,0,12.56,0,18.84C128.29,109.35,128.38,109.58,128.12,109.71Z" transform="translate(-103.65 -29.07)"/><path class="cls-3" d="M164.37,40q.81,3.81,1.61,7.6c.2.95.42,1.9.59,2.86a.73.73,0,0,0,.65.66c3.66.88,7.32,1.78,11.14,2.72l-.61,0h-13c-.3,0-.5,0-.5-.42,0-4.49,0-9,0-13.47Z" transform="translate(-103.65 -29.07)"/><path class="cls-3" d="M145.46,43.28a1.56,1.56,0,0,1,.77-.83c.14-.08.27-.23.16-.36s-.23,0-.31.13a.33.33,0,0,1-.45.08c-.17-.09-.12-.3,0-.45a.68.68,0,0,1,.77-.4c.31,0,.56.12.63.49a11.22,11.22,0,0,1,.08,1.92c0,.25-.18.21-.34.24s-.31-.22-.43,0Zm.63,0c0,.12,0,.23.18.22s.16-.16.16-.28,0-.25-.14-.23S146.1,43.18,146.09,43.32Z" transform="translate(-103.65 -29.07)"/><path class="cls-3" d="M163.6,57.62c0,.18,0,.36,0,.54s0,.23-.06.24a2.08,2.08,0,0,1-1.21,0,.51.51,0,0,1-.22-.77Z" transform="translate(-103.65 -29.07)"/><path class="cls-3" d="M180.21,71.7v.11c0,1.08,0,1.08-1.07,1-.38,0-.57-.32-.5-.75a1.21,1.21,0,0,1,.71-.86c.14-.08.31-.24.18-.4s-.22.05-.31.15a.41.41,0,0,1-.51.06c-.18-.11,0-.31,0-.45a.64.64,0,0,1,.71-.4.65.65,0,0,1,.7.42A3.84,3.84,0,0,1,180.21,71.7Zm-.67,0c-.23.1-.34.24-.27.48,0,.07.11.13.17.09C179.67,72.12,179.58,71.91,179.54,71.69Z" transform="translate(-103.65 -29.07)"/><path class="cls-3" d="M146.09,43.32c0-.14.06-.27.2-.29s.14.13.14.23,0,.27-.16.28S146.09,43.44,146.09,43.32Z" transform="translate(-103.65 -29.07)"/><path class="cls-3" d="M179.54,71.69c0,.22.13.43-.1.57-.06,0-.15,0-.17-.09C179.2,71.93,179.31,71.79,179.54,71.69Z" transform="translate(-103.65 -29.07)"/><path class="cls-3" d="M162.94,56" transform="translate(-103.65 -29.07)"/></svg>